<svg width="10" height="13" viewBox="0 0 10 13" fill="none" xmlns="http://www.w3.org/2000/svg">
<path fill-rule="evenodd" clip-rule="evenodd" d="M5.40469 12.5724L5.39718 12.5735L5.34872 12.5942L5.33508 12.5965L5.32552 12.5942L5.27707 12.5735C5.26979 12.5716 5.26433 12.5726 5.26069 12.5765L5.25796 12.5824L5.24636 12.8345L5.24977 12.8463L5.2566 12.8539L5.32757 12.8975L5.33781 12.8999L5.346 12.8975L5.41697 12.8539L5.42516 12.8445L5.42789 12.8345L5.41629 12.583C5.41447 12.5767 5.4106 12.5732 5.40469 12.5724ZM5.58553 12.5058L5.57666 12.507L5.45041 12.5618L5.44358 12.5677L5.44154 12.5741L5.45382 12.8274L5.45723 12.8345L5.46269 12.8386L5.59986 12.8934C5.60851 12.8954 5.6151 12.8938 5.61965 12.8887L5.62238 12.8804L5.59918 12.5188C5.5969 12.5117 5.59235 12.5074 5.58553 12.5058ZM5.09759 12.507C5.09458 12.5054 5.09099 12.5049 5.08755 12.5056C5.08412 12.5062 5.08111 12.508 5.07916 12.5105L5.07507 12.5188L5.05186 12.8804C5.05232 12.8875 5.05619 12.8922 5.06347 12.8946L5.0737 12.8934L5.21087 12.8386L5.2177 12.8339L5.22043 12.8274L5.23203 12.5741L5.22998 12.5671L5.22316 12.5612L5.09759 12.507Z" fill="#040000"/>
<path fill-rule="evenodd" clip-rule="evenodd" d="M4.03503 0.345097C4.27656 0.136608 4.59987 0.013864 4.94113 0.0011046C5.28239 -0.0116548 5.61679 0.0864976 5.8783 0.276179L5.96497 0.345097L7.07529 1.30287L7.19404 1.16033L7.40901 0.893492L7.5489 0.712068L7.68949 0.518274C7.89968 0.235536 8.1515 -0.0336547 8.5944 0.0717832C8.72467 0.102896 8.84131 0.1667 8.92951 0.255103C9.01772 0.343507 9.07352 0.452528 9.08985 0.568343L9.09463 0.639616V4.17385C9.09486 4.98501 8.77181 5.77155 8.1797 6.40146C7.58759 7.03137 6.76247 7.46631 5.84281 7.63327L5.68244 7.65919V10.0153C6.33196 9.92022 6.94538 9.69144 7.47079 9.34837C7.99619 9.0053 8.41812 8.55803 8.70086 8.04442C8.73931 7.97453 8.79333 7.91186 8.85983 7.85999C8.92634 7.80812 9.00403 7.76807 9.08847 7.74211C9.17291 7.71616 9.26245 7.70482 9.35197 7.70873C9.44149 7.71264 9.52924 7.73174 9.61021 7.76492C9.69118 7.79811 9.76378 7.84473 9.82388 7.90214C9.88397 7.95954 9.93038 8.0266 9.96045 8.09948C9.99052 8.17237 10.0037 8.24965 9.99913 8.32692C9.99459 8.40419 9.97247 8.47993 9.93402 8.54982C9.54109 9.26538 8.94557 9.88394 8.20248 10.3484C7.45939 10.8128 6.59269 11.1081 5.68244 11.207C5.68244 11.5404 5.40469 11.8319 5 11.8319C4.59531 11.8319 4.31756 11.5404 4.31756 11.2064C3.40745 11.1076 2.54084 10.8125 1.79776 10.3483C1.05468 9.88408 0.459087 9.26575 0.065976 8.5504C-0.0116703 8.40926 -0.0211751 8.24727 0.0395523 8.10007C0.10028 7.95287 0.226265 7.83253 0.389793 7.76551C0.553321 7.69849 0.740996 7.69029 0.911531 7.7427C1.08207 7.79512 1.22149 7.90386 1.29914 8.04501C1.56909 8.53552 1.96615 8.96585 2.45962 9.30271C2.95308 9.63957 3.52971 9.87393 4.14491 9.98766L4.31756 10.0159V7.65978C3.39189 7.52473 2.5481 7.11923 1.92753 6.51121C1.30695 5.90318 0.947291 5.12956 0.908787 4.31993L0.905374 4.17385V0.639616C0.905329 0.510773 0.954228 0.385471 1.04458 0.282909C1.13493 0.180348 1.26175 0.106184 1.4056 0.0717832C1.81302 -0.0254082 2.06006 0.196659 2.26138 0.454069L2.49682 0.773328L2.591 0.893492L2.80596 1.16033L2.92471 1.30287L4.03503 0.345097ZM7.72975 2.50275C7.38034 2.87796 6.97156 3.27085 6.54572 3.57715C6.13967 3.86931 5.59509 4.17385 5 4.17385C4.40491 4.17385 3.86033 3.86931 3.45428 3.57715C3.09941 3.3221 2.75683 3.00696 2.44973 2.69183L2.27025 2.50333V4.17385C2.27024 4.78854 2.54854 5.3789 3.04577 5.81896C3.54301 6.25902 4.2198 6.51393 4.93174 6.5293C5.64367 6.54467 6.33438 6.31929 6.85649 5.90124C7.37859 5.48319 7.69074 4.90558 7.72634 4.29166L7.72975 4.17385V2.50275ZM5 1.178L3.78936 2.22295L4.05209 2.47035C4.32507 2.7201 4.6738 2.99577 5 2.99577C5.32621 2.99577 5.67561 2.7201 5.94859 2.47035L6.21065 2.22295L5 1.178Z" fill="#040000"/>
</svg>
